PathFileType	4	(X/Y/Z)	Walk9.trc
DataRate	CameraRate	NumFrames	NumMarkers	Units	OrigDataRate	OrigDataStartFrame	OrigNumFrames
200.000000	200.000000	4	59	mm	200.000000	430	523
Frame#	Times		RFHD		RACR1		RUA1		RElbowM		RFA1		RWRU		LACR1		LUA1		LFA1		LWRU		RTH1		LTH2		LFHD		LTB2		RBack		RTH2		LTH4		LASI		CLAV		RTH3		RTB3		LCAR		RTB2		RTB1		LWRR		LTH3		RCAR		C7		RTB4		RElbow		RASI		T10		LBHD		LLFC		RWRR		RBHD		STRN		RPSI		LTB4		LToe		LTB1		LTH1		LElbowM		LElbow		LMMAL		RTH4		LPSI		LCAL		RMT5		LTB3		LMT5		LMT1		RLFC		LLMAL		RMT1		RToe		RCAL		RLMAL		RMMAL
			X1	Y1	Z1	X2	Y2	Z2	X3	Y3	Z3	X4	Y4	Z4	X5	Y5	Z5	X6	Y6	Z6	X7	Y7	Z7	X8	Y8	Z8	X9	Y9	Z9	X10	Y10	Z10	X11	Y11	Z11	X12	Y12	Z12	X13	Y13	Z13	X14	Y14	Z14	X15	Y15	Z15	X16	Y16	Z16	X17	Y17	Z17	X18	Y18	Z18	X19	Y19	Z19	X20	Y20	Z20	X21	Y21	Z21	X22	Y22	Z22	X23	Y23	Z23	X24	Y24	Z24	X25	Y25	Z25	X26	Y26	Z26	X27	Y27	Z27	X28	Y28	Z28	X29	Y29	Z29	X30	Y30	Z30	X31	Y31	Z31	X32	Y32	Z32	X33	Y33	Z33	X34	Y34	Z34	X35	Y35	Z35	X36	Y36	Z36	X37	Y37	Z37	X38	Y38	Z38	X39	Y39	Z39	X40	Y40	Z40	X41	Y41	Z41	X42	Y42	Z42	X43	Y43	Z43	X44	Y44	Z44	X45	Y45	Z45	X46	Y46	Z46	X47	Y47	Z47	X48	Y48	Z48	X49	Y49	Z49	X50	Y50	Z50	X51	Y51	Z51	X52	Y52	Z52	X53	Y53	Z53	X54	Y54	Z54	X55	Y55	Z55	X56	Y56	Z56	X57	Y57	Z57	X58	Y58	Z58	X59	Y59	Z59

430	2.15	401.61	1415.4	59.012	308.05	1212.2	175.85	325.14	1072.2	256.84	274.53	906.42	227.65	409.06	845.16	291.06	418.21	744.85	310.14	278.55	1212.4	-187.98	270.18	1053.3	-266.27	263.92	850.06	-334.2	233.96	745.86	-367.75	276.5	633.8	195.06	368.11	586.59	-181.07	407.37	1427.6	-36.605	429.47	232.84	-136.97	188.94	1144.6	123.25	314.79	548.58	150.88	318.83	564.98	-207.32	338.15	818.9	-171.6	372.03	1180.6	-6.5285	243.59	472.49	141.34	167.74	120.77	34.554	265.62	694.89	-384.46	157.98	204.97	99.025	224.95	280.39	63.596	286.39	735.17	-333.55	337.33	483.92	-177.93	479.17	708.62	295.37	232.2	1267.3	3.1779	192.81	200.42	48.679	325.33	947.25	294.86	357.37	829.08	155.4	143.31	1068.6	16.437	275.97	1356.7	-63.281	384.1	403.87	-143.29	448.55	757.96	245.72	269.46	1348.5	69.247	422.14	1074.1	-8.1675	100.24	848.17	51.978	457.44	239.22	-82.069	620.12	110.65	-103.47	439.54	325.19	-84.327	299.21	647.27	-226.89	205.38	913.7	-216.05	225.35	943.27	-284.71	480.6	94.669	-36.072	258.12	553.49	170.75	89.27	842.69	-51.902	426.7	40.518	-57.756	183.94	22.83	87.128	480.91	159.12	-82.721	543.91	56.267	-139.91	586.78	92.978	-70.137	198.39	390.64	116.02	452.64	69.622	-109.85	211.37	30.431	-5.8731	268.42	28.909	30.694	45.735	51.74	16.052	121.09	78.96	-17.459	105.32	67.43	63.982
431	2.155	406.66	1414.7	58.701	312.78	1211.5	175.49	330.23	1071.5	256.45	279.94	905.67	227.41	414.64	844.8	290.86	424.1	744.54	309.92	283.75	1211.6	-188.38	275.2	1052.5	-266.66	267.44	849.62	-335.1	236.06	745.88	-368.93	280.71	633.52	195.11	372.83	584.99	-180.67	412.49	1426.8	-36.918	437.07	232.77	-136.34	193.84	1143.7	122.68	318.36	547.94	151.05	323.48	563.54	-207.02	343.77	817.74	-171.66	377.12	1179.9	-6.749	246.49	472.43	141.4	168.43	120.97	34.609	266.94	694.6	-386.33	159.31	205.28	99.063	226.98	280.15	63.711	288.79	734.49	-335.34	341.72	482.43	-177.5	485.15	708.47	295.15	237.19	1266.5	2.7012	194.17	200.39	48.738	330.65	946.68	294.61	362.36	828.49	155.57	148.43	1067.7	15.813	281.07	1356	-63.673	389.05	403.03	-142.58	454.39	757.73	245.5	274.47	1347.7	68.863	427.41	1073.5	-7.9311	105.37	847.64	51.216	464.63	239.4	-81.267	629.84	112.56	-102.25	445.46	325.16	-83.348	304.19	645.88	-226.68	210.37	913.01	-216.24	230.16	942.69	-284.87	489.67	95.031	-35.569	261.65	553.26	170.81	94.769	841.75	-52.671	436.58	40.133	-57.658	183.91	22.825	87.017	489.28	159.6	-82.037	554.21	57.514	-139.17	596.16	94.742	-69.076	201.13	390.67	116.04	462.46	69.761	-109.54	211.44	30.469	-5.8398	268.54	28.872	30.751	45.913	52.802	16.015	121.46	79.486	-17.42	105.64	68.034	63.979
432	2.16	411.71	1413.9	58.363	317.49	1210.8	175.09	335.32	1070.8	256.04	285.3	904.91	227.16	420.18	844.42	290.61	429.93	744.21	309.71	288.96	1210.7	-188.82	280.23	1051.7	-267.09	271.06	849.15	-335.99	238.34	745.88	-370.07	285.01	633.23	195.16	377.63	583.52	-180.28	417.59	1426	-37.258	444.37	232.6	-135.64	198.73	1142.8	122.05	322.04	547.3	151.23	328.25	562.17	-206.73	349.38	816.56	-171.75	382.23	1179.1	-7.0042	249.53	472.35	141.49	169.15	121.18	34.676	268.44	694.29	-388.12	160.72	205.6	99.121	229.09	279.88	63.835	291.29	733.8	-337.04	346.3	481.04	-177.09	491.03	708.28	294.93	242.18	1265.6	2.1786	195.59	200.35	48.811	335.95	946.1	294.33	367.35	827.94	155.76	153.57	1066.8	15.145	286.18	1355.2	-64.097	394.14	402.22	-141.88	460.15	757.45	245.27	279.47	1347	68.447	432.67	1072.9	-7.7383	110.52	847.09	50.462	471.51	239.42	-80.398	638.87	113.94	-100.84	451.31	324.99	-82.354	309.2	644.54	-226.47	215.41	912.28	-216.47	235	942.07	-285.05	498.02	95.226	-34.931	265.31	553.03	170.87	100.29	840.81	-53.423	445.63	39.758	-57.432	183.88	22.816	86.911	497.12	159.88	-81.234	563.69	58.424	-138.26	604.79	96.065	-67.842	203.99	390.69	116.08	471.52	69.8	-109.09	211.51	30.51	-5.8005	268.65	28.839	30.795	46.102	53.909	16.019	121.85	80.052	-17.364	105.97	68.675	64.003
433	2.165	416.75	1413.1	57.998	322.18	1210.1	174.66	340.39	1070.1	255.59	290.6	904.15	226.9	425.66	844.02	290.32	435.67	743.86	309.49	294.18	1209.9	-189.31	285.27	1050.9	-267.58	274.79	848.65	-336.87	240.8	745.84	-371.17	289.42	632.92	195.21	382.55	582.18	-179.91	422.69	1425.2	-37.626	451.36	232.32	-134.89	203.61	1141.9	121.37	325.86	546.67	151.41	333.14	560.88	-206.46	355.01	815.38	-171.86	387.34	1178.4	-7.2959	252.75	472.25	141.6	169.91	121.4	34.757	270.14	693.94	-389.81	162.21	205.92	99.2	231.29	279.59	63.972	293.92	733.1	-338.65	351.11	479.75	-176.69	496.83	708.05	294.71	247.18	1264.8	1.6087	197.07	200.31	48.904	341.21	945.51	294.02	372.34	827.42	155.95	158.73	1065.9	14.434	291.3	1354.4	-64.552	399.39	401.45	-141.19	465.81	757.12	245.03	284.48	1346.2	68.001	437.93	1072.2	-7.5927	115.69	846.52	49.718	478.09	239.26	-79.465	647.22	114.73	-99.268	457.09	324.67	-81.349	314.24	643.27	-226.26	220.5	911.51	-216.73	239.89	941.41	-285.26	505.65	95.228	-34.164	269.09	552.79	170.94	105.83	839.86	-54.155	453.83	39.372	-57.084	183.86	22.803	86.81	504.45	159.95	-80.319	572.35	58.96	-137.18	612.67	96.91	-66.443	206.99	390.68	116.15	479.81	69.716	-108.5	211.57	30.555	-5.7555	268.75	28.807	30.825	46.303	55.067	16.071	122.25	80.661	-17.289	106.31	69.354	64.058
